HIERARCHY
ROOT Hips
{
	OFFSET 0.000000 0.000000 0.000000 
	CHANNELS 6 Xposition Yposition Zposition Zrotation Yrotation Xrotation
	JOINT LeftUpLeg
	{
		OFFSET 1.363060 -1.794630 0.839290 
		CHANNELS 3 Zrotation Yrotation Xrotation
		JOINT LeftLeg
		{
			OFFSET 2.448110 -6.726130 0.000000 
			CHANNELS 3 Zrotation Yrotation Xrotation
			JOINT LeftFoot
			{
				OFFSET 2.562200 -7.039590 0.000000 
				CHANNELS 3 Zrotation Yrotation Xrotation
				JOINT LeftToeBase
				{
					OFFSET 0.157640 -0.433110 2.322550 
					CHANNELS 3 Zrotation Yrotation Xrotation
					End Site
					{
						OFFSET 0.000000 0.000000 0.000000 
					}
				}
			}
		}
	}
	JOINT RightUpLeg
	{
		OFFSET -1.305520 -1.794630 0.839290 
		CHANNELS 3 Zrotation Yrotation Xrotation
		JOINT RightLeg
		{
			OFFSET -2.542530 -6.985550 0.000000 
			CHANNELS 3 Zrotation Yrotation Xrotation
			JOINT RightFoot
			{
				OFFSET -2.568260 -7.056230 0.000000 
				CHANNELS 3 Zrotation Yrotation Xrotation
				JOINT RightToeBase
				{
					OFFSET -0.164730 -0.452590 2.363150 
					CHANNELS 3 Zrotation Yrotation Xrotation
					End Site
					{
						OFFSET 0.000000 0.000000 0.000000 
					}
				}
			}
		}
	}
	JOINT Spine
	{
		OFFSET 0.028270 2.035590 -0.193380 
		CHANNELS 3 Zrotation Yrotation Xrotation
		JOINT Spine1
		{
			OFFSET 0.056720 2.048850 -0.042750 
			CHANNELS 3 Zrotation Yrotation Xrotation
			JOINT Neck1
			{
				OFFSET -0.054170 1.746240 0.172020 
				CHANNELS 3 Zrotation Yrotation Xrotation
				JOINT Head
				{
					OFFSET 0.104070 1.761360 -0.123970 
					CHANNELS 3 Zrotation Yrotation Xrotation
					End Site
					{
						OFFSET 0.000000 0.000000 0.000000 
					}
				}
			}
			JOINT LeftArm
			{
				OFFSET 3.362410 1.200890 -0.311210 
				CHANNELS 3 Zrotation Yrotation Xrotation
				JOINT LeftForeArm
				{
					OFFSET 4.983000 -0.000000 -0.000000 
					CHANNELS 3 Zrotation Yrotation Xrotation
					JOINT LeftHand
					{
						OFFSET 3.483560 -0.000000 -0.000000 
						CHANNELS 3 Zrotation Yrotation Xrotation
						JOINT LeftHandIndex1
						{
							OFFSET 0.715260 -0.000000 -0.000000 
							CHANNELS 3 Zrotation Yrotation Xrotation
							End Site
							{
								OFFSET 0.000000 0.000000 0.000000 
							}
						}
					}
				}
			}
			JOINT RightArm
			{
				OFFSET -3.136600 1.374050 -0.404650 
				CHANNELS 3 Zrotation Yrotation Xrotation
				JOINT RightForeArm
				{
					OFFSET -5.241900 -0.000000 -0.000000 
					CHANNELS 3 Zrotation Yrotation Xrotation
					JOINT RightHand
					{
						OFFSET -3.444170 -0.000000 -0.000000 
						CHANNELS 3 Zrotation Yrotation Xrotation
						JOINT RightHandIndex1
						{
							OFFSET -0.622530 -0.000000 -0.000000 
							CHANNELS 3 Zrotation Yrotation Xrotation
							End Site
							{
								OFFSET 0.000000 0.000000 0.000000 
							}
						}
					}
				}
			}
		}
	}
}
MOTION
Frames: 9
Frame Time: 0.041667
41.505921 17.782082 6.437303 -88.022029 -83.823131 98.868415 -10.429550 -7.021947 -5.920069 -0.516500 3.453923 8.378124 -0.608120 5.392426 1.041241 0.006400 0.518000 1.423300 24.014859 6.656148 -7.981189 -0.113012 -5.322481 13.237128 2.140401 -13.907196 -4.866878 -0.276400 -3.381700 9.343300 1.101513 -1.226306 -4.992862 3.404630 -0.917444 1.073987 4.476018 -4.716717 11.068940 2.536000 -2.510200 7.840400 -94.724354 4.580832 13.326909 16.095165 -35.157064 -4.767229 0.659974 3.814463 13.771519 -7.125000 0.000000 0.000000 84.742181 1.637224 12.707073 -10.026976 21.879004 -1.997369 -0.636255 0.360440 10.575715 7.125000 0.000000 0.000000 
41.515397 17.788066 6.439996 -88.104408 -83.794010 98.942071 -10.404679 -7.150743 -5.963530 -0.513445 3.473041 8.435429 -0.633180 5.507984 1.006704 0.006600 0.526300 1.446300 23.997662 6.590856 -8.139859 -0.123356 -5.361893 13.356345 2.115510 -13.779318 -4.845407 -0.272200 -3.356000 9.271600 1.045691 -1.209413 -5.150437 3.087494 -0.924017 0.541269 4.723695 -4.719726 11.572559 2.662800 -2.511300 8.060100 -94.416886 4.860023 14.522893 16.809390 -35.843653 -4.997654 0.594632 3.794413 13.191043 -7.125000 0.000000 0.000000 84.895159 1.557483 13.093002 -10.268119 22.228123 -2.061564 -0.653169 0.328568 10.409665 7.125000 0.000000 0.000000 
41.500933 17.782680 6.427129 -87.647685 -83.844632 98.335660 -10.480519 -7.080222 -5.730317 -0.517881 3.428599 8.327562 -0.613131 5.407467 1.028441 0.006800 0.533400 1.465800 24.000565 6.512778 -7.875077 -0.114132 -5.316466 13.233669 2.119711 -13.798888 -4.859421 -0.268300 -3.332100 9.204800 0.919216 -1.092167 -5.307631 2.618191 -0.889199 -0.044667 4.747248 -4.811749 11.702851 2.617900 -2.546200 8.055400 -93.926413 5.101053 15.482229 17.278743 -36.237252 -5.143682 0.574705 3.736442 13.176312 -7.125000 0.000000 0.000000 85.283367 1.074395 13.330915 -10.609705 22.773547 -2.216430 -0.637558 0.346331 9.842172 7.125000 0.000000 0.000000 
41.500634 17.781882 6.421343 -87.173257 -83.899692 97.867413 -10.508735 -7.124943 -5.724074 -0.516749 3.442633 8.360508 -0.614546 5.415102 1.005751 0.006500 0.519500 1.427400 23.978987 6.472704 -7.884110 -0.114529 -5.321634 13.244280 2.125519 -13.827622 -4.896231 -0.272200 -3.355800 9.270900 1.052857 -1.261715 -5.198003 3.158578 -0.948358 0.462550 4.642786 -4.666429 11.714731 2.606000 -2.493000 8.038400 -94.307815 4.619248 15.935113 17.667270 -36.727455 -5.283942 0.536466 3.704538 13.325933 -7.125000 0.000000 0.000000 84.931918 1.673988 14.021442 -10.831575 23.123302 -2.309375 -0.635244 0.345097 9.336513 7.125000 0.000000 0.000000 
41.499437 17.781383 6.415259 -87.007546 -83.903025 97.672853 -10.494059 -7.150197 -5.694558 -0.515294 3.450520 8.385371 -0.613051 5.401849 0.966994 0.006700 0.529600 1.455100 24.009072 6.514804 -7.849040 -0.116836 -5.331239 13.271413 2.131942 -13.859079 -4.904006 -0.270200 -3.343800 9.237400 1.059367 -1.278213 -5.232579 3.168085 -0.956183 0.383390 4.698385 -4.611485 11.842897 2.632100 -2.466000 8.079900 -94.220609 4.512374 16.678272 18.153700 -37.218916 -5.458520 0.517083 3.677616 13.266779 -7.125000 0.000000 0.000000 84.954695 1.773524 14.509784 -11.147868 23.595626 -2.411963 -0.647833 0.329252 9.001400 7.125000 0.000000 0.000000 
41.498639 17.781184 6.409074 -86.756267 -83.999578 97.345361 -10.482251 -7.274560 -5.629782 -0.513557 3.460222 8.413121 -0.626632 5.463452 0.913735 0.008900 0.608700 1.672800 24.024374 6.506162 -7.797111 -0.118308 -5.321272 13.269154 2.136275 -13.867851 -4.938573 -0.269100 -3.336900 9.218100 1.740839 -1.234380 -5.433147 6.277660 -0.850655 -0.378689 3.575488 -4.132450 11.897332 2.389200 -2.427200 8.089200 -96.606258 4.911816 17.148397 18.617901 -38.085518 -5.655545 0.510575 3.791944 13.858988 -7.125000 0.000000 0.000000 82.345881 1.455643 15.480706 -11.575152 24.155924 -2.600533 -0.624139 0.337542 7.643325 7.125000 0.000000 0.000000 
41.497243 17.780984 6.402491 -86.928140 -83.943377 97.521741 -10.439026 -7.239510 -5.610641 -0.513674 3.456854 8.403585 -0.624684 5.451846 0.900706 0.008700 0.601500 1.652800 24.075671 6.516147 -7.766941 -0.115533 -5.316075 13.242984 2.133383 -13.861066 -4.913454 -0.271300 -3.350500 9.256100 1.438650 -1.233260 -5.341914 4.883162 -0.886493 0.008905 4.027953 -4.226497 12.027579 2.459900 -2.382600 8.158900 -95.353643 4.403391 18.083362 19.130784 -38.408541 -5.833091 0.482878 3.698720 13.424047 -7.125000 0.000000 0.000000 83.582397 1.920960 15.780978 -11.818741 24.557553 -2.698214 -0.633033 0.328631 7.472842 7.125000 0.000000 0.000000 
41.496544 17.780585 6.395908 -86.844361 -83.945205 97.431401 -10.421499 -7.286505 -5.594500 -0.512428 3.465523 8.424969 -0.636224 5.508768 0.890791 0.007000 0.541300 1.487500 24.102710 6.529187 -7.743730 -0.114770 -5.314275 13.236167 2.136878 -13.878956 -4.937127 -0.275200 -3.374100 9.322100 1.429492 -1.267120 -5.316487 4.823047 -0.901960 0.167456 4.083151 -4.252567 12.122390 2.473600 -2.388700 8.199800 -95.210588 4.135701 18.629874 19.561405 -38.804086 -5.978207 0.431760 3.637847 13.596569 -7.125000 0.000000 0.000000 83.692246 2.191835 16.290414 -12.149616 25.046597 -2.823678 -0.641741 0.313037 7.117351 7.125000 0.000000 0.000000 
41.494250 17.780386 6.390122 -86.840604 -83.950477 97.411182 -10.419591 -7.318118 -5.534911 -0.513390 3.458617 8.404503 -0.639408 5.522663 0.864992 0.007400 0.554300 1.523100 24.125176 6.523731 -7.698829 -0.112980 -5.307463 13.216036 2.136175 -13.875799 -4.953731 -0.276400 -3.381800 9.343700 1.412272 -1.283534 -5.292997 4.739241 -0.910534 0.306940 4.270456 -4.235771 12.293144 2.543500 -2.362400 8.296100 -95.043397 3.812949 19.251422 19.886678 -39.122672 -6.113573 0.455768 3.621181 13.697475 -7.125000 0.000000 0.000000 83.795219 2.433192 16.768257 -12.433198 25.474620 -2.962923 -0.634253 0.316435 6.804419 7.125000 0.000000 0.000000 
